# xmcd
#
# Track frame offsets:
#	150
#	20645
#	39305
#	58162
#	76615
#	94135
#	115522
#	128727
#	149500
#
# Disc length: 2265 seconds
#
# Revision: 0
# Processed by: cddbd v1.5.2PL0 Copyright (c) Steve Scherf et al.
# Submitted via: EasyCDDAExtractor 12.0.1.1
#
DISCID=6e08d709
DTITLE=Alabama - Gonna Have a Party-Live
DYEAR=1993
DGENRE=Country
TTITLE0=Gonna Have a Party
TTITLE1=Red River
TTITLE2=Roll On (Eighteen Wheeler)
TTITLE3=She and I
TTITLE4=Lady Down on Love
TTITLE5=Tennessee River
TTITLE6=Green River
TTITLE7=My Home's in Alabama
TTITLE8=Takin' Care of Business
EXTD=
EXTT0=
EXTT1=
EXTT2=
EXTT3=
EXTT4=
EXTT5=
EXTT6=
EXTT7=
EXTT8=
PLAYORDER=
